<svg xmlns="http://www.w3.org/2000/svg" viewBox="0 0 170.079 170.079"><defs><style>.a{fill:#1db954;}</style></defs><g class="a"><path d="M128.8,141.967a77.457,77.457,0,1,1,14.249-12.156l23.937,28.023-14.173,12.24ZM86.019,18.735A58.735,58.735,0,1,0,144.762,77.47,58.8,58.8,0,0,0,86.019,18.735Z"/><rect x="28.789" y="97.057" width="24.864" height="13.388"/><rect x="28.789" y="115.955" width="24.864" height="13.388"/><rect x="58.773" y="115.955" width="24.864" height="13.388"/><rect x="58.773" y="97.057" width="24.864" height="13.388"/><rect x="58.773" y="78.167" width="24.864" height="13.388"/><rect x="58.773" y="59.278" width="24.864" height="13.388"/><rect x="87.533" y="115.955" width="24.864" height="13.388"/><rect x="87.533" y="97.057" width="24.864" height="13.388"/><rect x="87.533" y="78.167" width="24.864" height="13.388"/><rect x="116.426" y="115.599" width="24.864" height="13.388"/><rect x="116.426" y="96.71" width="24.864" height="13.388"/><rect x="116.426" y="77.811" width="24.864" height="13.388"/><rect x="116.426" y="59.278" width="24.864" height="13.388"/><rect x="116.426" y="40.735" width="24.864" height="13.388"/></g></svg>